# xmcd
#
# Track frame offsets: 
#        150
#        13540
#        36167
#        54772
#
# Disc length: 967 seconds
#
# Revision: 0
# Processed by: cddbd v1.5.2PL0 Copyright (c) Steve Scherf et al.
# Submitted via: ExactAudioCopyFreeDBPlugin 1.0
#
DISCID=2303c504
DTITLE=Robert Cray - I Hate Taxes!
DYEAR=1993
DGENRE=Blues
TTITLE0=I Hate Taxes! (1040 Blues Edit)
TTITLE1=1040 Blues (Album Version)
TTITLE2=Move A Mountain
TTITLE3=Don't You Even Care
EXTD=
EXTT0=
EXTT1=
EXTT2=
EXTT3=
PLAYORDER=
